#N canvas 521 50 1170 857 10;
#X obj 23 13 r osc1;
#X obj 23 57 mtof;
#X obj 23 101 *~;
#X obj 53 35 r noteOn1;
#X obj 123 57 mtof;
#X obj 123 101 *~;
#X obj 223 57 mtof;
#X obj 223 101 *~;
#X obj 323 57 mtof;
#X obj 323 101 *~;
#X obj 123 13 r osc2;
#X obj 153 35 r noteOn2;
#X obj 253 35 r noteOn3;
#X obj 223 13 r osc3;
#X obj 323 13 r osc3;
#X obj 353 35 r noteOn3;
#X obj 23 123 dac~;
#X obj 123 123 dac~;
#X obj 223 123 dac~;
#X obj 323 123 dac~;
#X obj 83 79 line~;
#X obj 183 79 line~;
#X obj 283 79 line~;
#X obj 383 79 line~;
#N canvas 0 22 450 278 (subpatch) 0;
#X array kick 48000 float 2;
#X coords 0 1 48000 -1 200 140 1 0 0;
#X restore 6 298 graph;
#N canvas 0 22 450 278 (subpatch) 0;
#X array snare 48000 float 2;
#X coords 0 1 48000 -1 200 140 1 0 0;
#X restore 216 298 graph;
#N canvas 0 22 450 278 (subpatch) 0;
#X array cHH 48000 float 2;
#X coords 0 1 48000 -1 200 140 1 0 0;
#X restore 426 298 graph;
#X obj 423 96 soundfiler;
#X obj 423 13 loadbang;
#X obj 23 153 r drum1;
#X obj 23 175 tabplay~ kick;
#X obj 23 219 *~;
#X obj 38 197 r drumVel1;
#X obj 23 241 dac~;
#X obj 123 219 *~;
#X obj 123 241 dac~;
#X obj 123 153 r drum2;
#X obj 123 175 tabplay~ snare;
#X obj 138 197 r drumVel2;
#X obj 223 219 *~;
#X obj 223 241 dac~;
#X obj 238 197 r drumVel3;
#X obj 223 175 tabplay~ cHH;
#X obj 223 153 r drum3;
#X msg 53 57 \$1 10;
#X msg 153 57 \$1 10;
#X msg 253 57 \$1 10;
#X msg 353 57 \$1 10;
#X obj 23 35 + 36;
#X obj 123 35 + 36;
#X obj 223 35 + 36;
#X obj 323 35 + 36;
#X msg 443 34 read -resize samples/kick.wav kick;
#X msg 433 54 read -resize samples/snare.wav snare;
#X msg 423 74 read -resize samples/closedHH.wav cHH;
#N canvas 0 22 450 278 (subpatch) 0;
#X array oHH 48000 float 2;
#X coords 0 1 48000 -1 200 140 1 0 0;
#X restore 6 458 graph;
#N canvas 0 22 450 278 (subpatch) 0;
#X array crash 48000 float 2;
#X coords 0 1 48000 -1 200 140 1 0 0;
#X restore 216 458 graph;
#N canvas 0 22 450 278 (subpatch) 0;
#X array perc1 48000 float 2;
#X coords 0 1 48000 -1 200 140 1 0 0;
#X restore 426 458 graph;
#N canvas 0 22 450 278 (subpatch) 0;
#X array perc2 48000 float 2;
#X coords 0 1 48000 -1 200 140 1 0 0;
#X restore 6 618 graph;
#X obj 323 219 *~;
#X obj 323 241 dac~;
#X obj 423 219 *~;
#X obj 423 241 dac~;
#X obj 523 219 *~;
#X obj 523 241 dac~;
#X obj 623 219 *~;
#X obj 623 241 dac~;
#X obj 323 153 r drum4;
#X obj 423 153 r drum5;
#X obj 523 153 r drum6;
#X obj 623 153 r drum7;
#X obj 323 175 tabplay~ oHH;
#X obj 423 175 tabplay~ crash;
#X obj 523 175 tabplay~ perc1;
#X obj 623 175 tabplay~ perc2;
#X obj 338 197 r drumVel4;
#X obj 438 197 r drumVel5;
#X obj 538 196 r drumVel6;
#X obj 638 197 r drumVel7;
#X msg 683 54 read -resize samples/crash.wav crash;
#X msg 673 74 read -resize samples/perc1.wav perc1;
#X msg 693 34 read -resize samples/openHH.wav oHH;
#X msg 663 94 read -resize samples/perc2.wav perc2;
#N canvas 935 287 450 300 synth 0;
#X obj 9 9 inlet;
#X obj 9 267 outlet~;
#X obj 9 91 phasor~;
#X obj 9 113 *~ 2;
#X obj 9 135 -~ 1;
#X obj 59 91 phasor~;
#X obj 59 113 *~ 2;
#X obj 59 135 -~ 1;
#X obj 109 91 phasor~;
#X obj 109 113 *~ 2;
#X obj 109 135 -~ 1;
#X obj 9 247 *~ 0.2;
#X obj 60 71 + 0.1;
#X obj 110 71 - 0.1;
#X connect 0 0 2 0;
#X connect 0 0 12 0;
#X connect 0 0 13 0;
#X connect 2 0 3 0;
#X connect 3 0 4 0;
#X connect 4 0 11 0;
#X connect 5 0 6 0;
#X connect 6 0 7 0;
#X connect 7 0 11 0;
#X connect 8 0 9 0;
#X connect 9 0 10 0;
#X connect 10 0 11 0;
#X connect 11 0 1 0;
#X connect 12 0 5 0;
#X connect 13 0 8 0;
#X restore 23 79 pd synth;
#N canvas 935 287 450 300 synth 0;
#X obj 9 9 inlet;
#X obj 9 267 outlet~;
#X obj 9 91 phasor~;
#X obj 9 113 *~ 2;
#X obj 9 135 -~ 1;
#X obj 59 91 phasor~;
#X obj 59 113 *~ 2;
#X obj 59 135 -~ 1;
#X obj 109 91 phasor~;
#X obj 109 113 *~ 2;
#X obj 109 135 -~ 1;
#X obj 9 247 *~ 0.2;
#X obj 60 71 + 0.1;
#X obj 109 71 - 0.1;
#X connect 0 0 2 0;
#X connect 0 0 12 0;
#X connect 0 0 13 0;
#X connect 2 0 3 0;
#X connect 3 0 4 0;
#X connect 4 0 11 0;
#X connect 5 0 6 0;
#X connect 6 0 7 0;
#X connect 7 0 11 0;
#X connect 8 0 9 0;
#X connect 9 0 10 0;
#X connect 10 0 11 0;
#X connect 11 0 1 0;
#X connect 12 0 5 0;
#X connect 13 0 8 0;
#X restore 123 79 pd synth;
#N canvas 935 287 450 300 synth 0;
#X obj 9 9 inlet;
#X obj 9 267 outlet~;
#X obj 9 91 phasor~;
#X obj 9 113 *~ 2;
#X obj 9 135 -~ 1;
#X obj 59 91 phasor~;
#X obj 59 113 *~ 2;
#X obj 59 135 -~ 1;
#X obj 109 91 phasor~;
#X obj 109 113 *~ 2;
#X obj 109 135 -~ 1;
#X obj 9 247 *~ 0.2;
#X obj 60 71 + 0.1;
#X obj 109 71 - 0.1;
#X connect 0 0 2 0;
#X connect 0 0 12 0;
#X connect 0 0 13 0;
#X connect 2 0 3 0;
#X connect 3 0 4 0;
#X connect 4 0 11 0;
#X connect 5 0 6 0;
#X connect 6 0 7 0;
#X connect 7 0 11 0;
#X connect 8 0 9 0;
#X connect 9 0 10 0;
#X connect 10 0 11 0;
#X connect 11 0 1 0;
#X connect 12 0 5 0;
#X connect 13 0 8 0;
#X restore 223 79 pd synth;
#N canvas 775 371 450 300 synth 0;
#X obj 9 9 inlet;
#X obj 9 267 outlet~;
#X obj 9 91 phasor~;
#X obj 9 113 *~ 2;
#X obj 9 135 -~ 1;
#X obj 59 91 phasor~;
#X obj 59 113 *~ 2;
#X obj 59 135 -~ 1;
#X obj 109 91 phasor~;
#X obj 109 113 *~ 2;
#X obj 109 135 -~ 1;
#X obj 9 247 *~ 0.2;
#X obj 60 71 + 0.1;
#X obj 109 71 - 0.1;
#X connect 0 0 2 0;
#X connect 0 0 12 0;
#X connect 0 0 13 0;
#X connect 2 0 3 0;
#X connect 3 0 4 0;
#X connect 4 0 11 0;
#X connect 5 0 6 0;
#X connect 6 0 7 0;
#X connect 7 0 11 0;
#X connect 8 0 9 0;
#X connect 9 0 10 0;
#X connect 10 0 11 0;
#X connect 11 0 1 0;
#X connect 12 0 5 0;
#X connect 13 0 8 0;
#X restore 323 79 pd synth;
#X connect 0 0 48 0;
#X connect 1 0 83 0;
#X connect 2 0 16 0;
#X connect 2 0 16 1;
#X connect 3 0 44 0;
#X connect 4 0 84 0;
#X connect 5 0 17 0;
#X connect 5 0 17 1;
#X connect 6 0 85 0;
#X connect 7 0 18 0;
#X connect 7 0 18 1;
#X connect 8 0 86 0;
#X connect 9 0 19 0;
#X connect 9 0 19 1;
#X connect 10 0 49 0;
#X connect 11 0 45 0;
#X connect 12 0 46 0;
#X connect 13 0 50 0;
#X connect 14 0 51 0;
#X connect 15 0 47 0;
#X connect 20 0 2 1;
#X connect 21 0 5 1;
#X connect 22 0 7 1;
#X connect 23 0 9 1;
#X connect 28 0 54 0;
#X connect 28 0 53 0;
#X connect 28 0 52 0;
#X connect 28 0 81 0;
#X connect 28 0 79 0;
#X connect 28 0 80 0;
#X connect 28 0 82 0;
#X connect 29 0 30 0;
#X connect 30 0 31 0;
#X connect 31 0 33 0;
#X connect 31 0 33 1;
#X connect 32 0 31 1;
#X connect 34 0 35 0;
#X connect 34 0 35 1;
#X connect 36 0 37 0;
#X connect 37 0 34 0;
#X connect 38 0 34 1;
#X connect 39 0 40 0;
#X connect 39 0 40 1;
#X connect 41 0 39 1;
#X connect 42 0 39 0;
#X connect 43 0 42 0;
#X connect 44 0 20 0;
#X connect 45 0 21 0;
#X connect 46 0 22 0;
#X connect 47 0 23 0;
#X connect 48 0 1 0;
#X connect 49 0 4 0;
#X connect 50 0 6 0;
#X connect 51 0 8 0;
#X connect 52 0 27 0;
#X connect 53 0 27 0;
#X connect 54 0 27 0;
#X connect 59 0 60 0;
#X connect 59 0 60 1;
#X connect 61 0 62 0;
#X connect 61 0 62 1;
#X connect 63 0 64 0;
#X connect 63 0 64 1;
#X connect 65 0 66 0;
#X connect 65 0 66 1;
#X connect 67 0 71 0;
#X connect 68 0 72 0;
#X connect 69 0 73 0;
#X connect 70 0 74 0;
#X connect 71 0 59 0;
#X connect 72 0 61 0;
#X connect 73 0 63 0;
#X connect 74 0 65 0;
#X connect 75 0 59 1;
#X connect 76 0 61 1;
#X connect 77 0 63 1;
#X connect 78 0 65 1;
#X connect 79 0 27 0;
#X connect 80 0 27 0;
#X connect 81 0 27 0;
#X connect 82 0 27 0;
#X connect 83 0 2 0;
#X connect 84 0 5 0;
#X connect 85 0 7 0;
#X connect 86 0 9 0;
